<svg width="111" height="18" viewBox="0 0 111 18" fill="none" xmlns="http://www.w3.org/2000/svg">
<path d="M34.484 14H36.864L32.482 4.2H30.242L25.874 14H28.198L29.066 11.9H33.616L34.484 14ZM29.794 10.178L31.348 6.426L32.902 10.178H29.794ZM43.1464 3.612V7.266C42.6004 6.65 41.8164 6.356 40.8924 6.356C38.7644 6.356 37.1264 7.868 37.1264 10.234C37.1264 12.6 38.7644 14.112 40.8924 14.112C41.9004 14.112 42.6984 13.79 43.2444 13.132V14H45.3304V3.612H43.1464ZM41.2704 12.32C40.1784 12.32 39.3384 11.536 39.3384 10.234C39.3384 8.932 40.1784 8.148 41.2704 8.148C42.3484 8.148 43.1884 8.932 43.1884 10.234C43.1884 11.536 42.3484 12.32 41.2704 12.32ZM52.8398 3.612V7.266C52.2938 6.65 51.5098 6.356 50.5858 6.356C48.4578 6.356 46.8198 7.868 46.8198 10.234C46.8198 12.6 48.4578 14.112 50.5858 14.112C51.5938 14.112 52.3918 13.79 52.9378 13.132V14H55.0238V3.612H52.8398ZM50.9638 12.32C49.8718 12.32 49.0318 11.536 49.0318 10.234C49.0318 8.932 49.8718 8.148 50.9638 8.148C52.0418 8.148 52.8818 8.932 52.8818 10.234C52.8818 11.536 52.0418 12.32 50.9638 12.32ZM65.28 12.096C65.042 12.278 64.72 12.376 64.398 12.376C63.81 12.376 63.46 12.026 63.46 11.382V8.316H65.336V6.636H63.46V4.802H61.276V6.636H60.114V8.316H61.276V11.41C61.276 13.202 62.312 14.112 64.09 14.112C64.762 14.112 65.42 13.958 65.868 13.636L65.28 12.096ZM70.4455 14.112C72.8395 14.112 74.5755 12.502 74.5755 10.234C74.5755 7.966 72.8395 6.356 70.4455 6.356C68.0515 6.356 66.3015 7.966 66.3015 10.234C66.3015 12.502 68.0515 14.112 70.4455 14.112ZM70.4455 12.32C69.3535 12.32 68.5135 11.536 68.5135 10.234C68.5135 8.932 69.3535 8.148 70.4455 8.148C71.5375 8.148 72.3635 8.932 72.3635 10.234C72.3635 11.536 71.5375 12.32 70.4455 12.32ZM84.8442 14.168C86.5522 14.168 87.9662 13.552 88.8902 12.418L87.4342 11.074C86.7762 11.844 85.9502 12.236 84.9702 12.236C83.1362 12.236 81.8342 10.948 81.8342 9.1C81.8342 7.252 83.1362 5.964 84.9702 5.964C85.9502 5.964 86.7762 6.356 87.4342 7.112L88.8902 5.768C87.9662 4.648 86.5522 4.032 84.8582 4.032C81.8062 4.032 79.5382 6.146 79.5382 9.1C79.5382 12.054 81.8062 14.168 84.8442 14.168ZM93.2511 6.356C92.0471 6.356 90.8291 6.678 90.0031 7.266L90.7871 8.792C91.3331 8.358 92.1591 8.092 92.9571 8.092C94.1331 8.092 94.6931 8.638 94.6931 9.576H92.9571C90.6611 9.576 89.7231 10.5 89.7231 11.83C89.7231 13.132 90.7731 14.112 92.5371 14.112C93.6431 14.112 94.4271 13.748 94.8331 13.062V14H96.8771V9.702C96.8771 7.42 95.5471 6.356 93.2511 6.356ZM93.0831 12.642C92.3131 12.642 91.8511 12.278 91.8511 11.732C91.8511 11.228 92.1731 10.85 93.1951 10.85H94.6931V11.62C94.4411 12.306 93.8111 12.642 93.0831 12.642ZM100.94 7.462V6.468H98.8537V14H101.038V10.444C101.038 9.002 101.836 8.344 103.04 8.344C103.208 8.344 103.348 8.358 103.53 8.372V6.356C102.368 6.356 101.472 6.734 100.94 7.462ZM109.358 12.096C109.12 12.278 108.798 12.376 108.476 12.376C107.888 12.376 107.538 12.026 107.538 11.382V8.316H109.414V6.636H107.538V4.802H105.354V6.636H104.192V8.316H105.354V11.41C105.354 13.202 106.39 14.112 108.168 14.112C108.84 14.112 109.498 13.958 109.946 13.636L109.358 12.096Z" fill="white"/>
<path fill-rule="evenodd" clip-rule="evenodd" d="M12.8649 9.1664C13.7779 9.52626 14.3794 10.4064 14.3831 11.3878C14.381 12.2088 13.9589 12.9716 13.2644 13.4094C13.4723 13.7661 13.5825 14.1712 13.584 14.584C13.5914 15.5429 13.0268 16.4139 12.1485 16.7985C11.2701 17.1831 10.2471 17.0073 9.54753 16.3516C8.84795 15.6959 8.60643 14.6863 8.93348 13.785H7.0477C7.40887 14.78 7.07458 15.8942 6.22528 16.5261C5.37597 17.158 4.21274 17.158 3.36344 16.5261C2.51413 15.8942 2.17985 14.78 2.54101 13.785H1.59812C1.15681 13.785 0.799059 13.4272 0.799059 12.9859C0.799059 12.5446 1.15681 12.1868 1.59812 12.1868H11.9859C12.4272 12.1868 12.785 11.8291 12.785 11.3878C12.785 10.9465 12.4272 10.5887 11.9859 10.5887H3.76357C3.39211 10.6015 3.06093 10.3564 2.96451 9.99742L0.982843 2.59813H0V1.00002H1.59812C1.96072 0.998424 2.27893 1.24119 2.37321 1.59132L2.6369 2.59813H13.584C13.8259 2.59095 14.0581 2.69379 14.2153 2.87781C14.3692 3.07435 14.4224 3.33151 14.3591 3.57299L12.8649 9.1664ZM4.39483 8.99061H11.2587L12.5452 4.19625H3.06839L4.39483 8.99061ZM4.79436 15.3831C4.35305 15.3831 3.9953 15.0253 3.9953 14.584C3.9953 14.1427 4.35305 13.785 4.79436 13.785C5.23566 13.785 5.59342 14.1427 5.59342 14.584C5.59342 15.0253 5.23566 15.3831 4.79436 15.3831ZM10.3878 14.584C10.3878 15.0253 10.7455 15.3831 11.1868 15.3831C11.6281 15.3831 11.9859 15.0253 11.9859 14.584C11.9859 14.1427 11.6281 13.785 11.1868 13.785C10.7455 13.785 10.3878 14.1427 10.3878 14.584Z" fill="white"/>
</svg>
